<?xml version="1.0" encoding="UTF-8"?>
<svg xmlns="http://www.w3.org/2000/svg" xmlns:xlink="http://www.w3.org/1999/xlink" width="20px" height="20px" viewBox="0 0 20 20" version="1.1">
<g id="surface1">
<path style=" stroke:none;fill-rule:nonzero;fill:rgb(100%,61.568627%,20%);fill-opacity:1;" d="M 17.8125 8.1875 C 17.8125 8.1875 16.875 9.0625 15.28125 10.09375 C 14.84375 7.5625 13.625 4.4375 11.25 0.625 C 11.25 0.625 10.46875 4.71875 7.875 8.5625 C 6.75 6.8125 6.25 5.4375 6.25 5.4375 C -1.875 13.59375 4.875 19.375 9.125 19.375 C 14.5625 19.375 19.34375 16.75 17.8125 8.1875 "/>
<path style=" stroke:none;fill-rule:nonzero;fill:rgb(100%,80.784314%,19.215686%);fill-opacity:1;" d="M 14.59375 15.4375 C 15.0625 14.40625 15.40625 13.0625 15.46875 11.375 C 15.46875 11.375 14.8125 11.9375 13.6875 12.65625 C 13.375 10.96875 12.53125 8.90625 10.875 6.34375 C 10.875 6.34375 10.34375 9.0625 8.53125 11.65625 C 7.75 10.5 7.40625 9.5625 7.40625 9.5625 C 6.0625 11.6875 5.53125 13.375 5.5 14.71875 C 4.75 14.4375 4.28125 14.21875 4.28125 14.21875 C 5.5625 18.03125 8.21875 18.875 9.40625 18.875 C 11.53125 18.875 13.6875 18.25 15.8125 15.21875 C 15.8125 15.1875 15.34375 15.3125 14.59375 15.4375 "/>
<path style=" stroke:none;fill-rule:nonzero;fill:rgb(100%,87.45098%,52.156863%);fill-opacity:1;" d="M 6.84375 13.71875 C 6.84375 13.71875 7.71875 14.90625 8.375 14.625 C 8.375 14.625 9.625 12.65625 11.4375 11.5625 C 11.4375 11.5625 11.0625 14.5625 11.5 15.09375 C 12.0625 15.8125 13.59375 14.3125 13.59375 14.3125 C 13.59375 16.09375 11.65625 18.3125 9.90625 18.3125 C 8.21875 18.3125 5.78125 16.375 6.84375 13.71875 "/>
<path style=" stroke:none;fill-rule:nonzero;fill:rgb(100%,61.568627%,20%);fill-opacity:1;" d="M 15.5625 5.65625 C 16.21875 4.71875 16.65625 3.71875 16.65625 3.71875 C 17.75 5.53125 17.09375 6.625 16.625 6.96875 C 15.96875 7.46875 14.8125 6.75 15.5625 5.65625 "/>
<path style=" stroke:none;fill-rule:nonzero;fill:rgb(100%,61.568627%,20%);fill-opacity:1;" d="M 3.625 5.34375 C 2.96875 4.25 2.90625 2.875 2.90625 2.875 C 1.34375 5.21875 1.9375 6.53125 2.46875 6.90625 C 3.15625 7.4375 4.34375 6.625 3.625 5.34375 "/>
<path style=" stroke:none;fill-rule:nonzero;fill:rgb(100%,61.568627%,20%);fill-opacity:1;" d="M 7.25 2.90625 C 7.34375 2.15625 7.03125 1.40625 7.03125 1.40625 C 8.5 2.375 8.5 3.1875 8.3125 3.53125 C 8.03125 3.9375 7.15625 3.75 7.25 2.90625 "/>
</g>
</svg>
